<mxfile host="app.diagrams.net" agent="Mozilla/5.0 (Macintosh; Intel Mac OS X 10_15_7) AppleWebKit/537.36 (KHTML, like Gecko) Chrome/138.0.0.0 Safari/537.36" version="25.0.3">
  <diagram id="0" name="第 1 页">
    <mxGraphModel dx="1026" dy="650" grid="1" gridSize="10" guides="1" tooltips="1" connect="1" arrows="1" fold="1" page="1" pageScale="1" pageWidth="2336" pageHeight="1654" math="0" shadow="0">
      <root>
        <mxCell id="0" />
        <mxCell id="1" parent="0" />
        <mxCell id="81-VmglB9chWacr3tUtb-1" style="edgeStyle=orthogonalEdgeStyle;rounded=0;orthogonalLoop=1;jettySize=auto;html=1;entryX=0.625;entryY=0;entryDx=0;entryDy=0;entryPerimeter=0;" parent="1" source="81-VmglB9chWacr3tUtb-7" target="81-VmglB9chWacr3tUtb-13" edge="1">
          <mxGeometry relative="1" as="geometry" />
        </mxCell>
        <mxCell id="81-VmglB9chWacr3tUtb-2" value="可用营销list" style="edgeLabel;html=1;align=center;verticalAlign=middle;resizable=0;points=[];" parent="81-VmglB9chWacr3tUtb-1" vertex="1" connectable="0">
          <mxGeometry x="-0.0691" relative="1" as="geometry">
            <mxPoint x="15" y="9" as="offset" />
          </mxGeometry>
        </mxCell>
        <mxCell id="81-VmglB9chWacr3tUtb-3" style="edgeStyle=orthogonalEdgeStyle;rounded=0;orthogonalLoop=1;jettySize=auto;html=1;exitX=0.75;exitY=0;exitDx=0;exitDy=0;entryX=0.337;entryY=0.989;entryDx=0;entryDy=0;entryPerimeter=0;strokeColor=default;endArrow=none;endFill=0;" parent="1" source="81-VmglB9chWacr3tUtb-7" target="81-VmglB9chWacr3tUtb-41" edge="1">
          <mxGeometry relative="1" as="geometry" />
        </mxCell>
        <mxCell id="81-VmglB9chWacr3tUtb-4" value="外卖/出行" style="edgeLabel;html=1;align=center;verticalAlign=middle;resizable=0;points=[];" parent="81-VmglB9chWacr3tUtb-3" vertex="1" connectable="0">
          <mxGeometry x="0.0782" relative="1" as="geometry">
            <mxPoint as="offset" />
          </mxGeometry>
        </mxCell>
        <mxCell id="81-VmglB9chWacr3tUtb-5" style="edgeStyle=orthogonalEdgeStyle;rounded=0;orthogonalLoop=1;jettySize=auto;html=1;exitX=1;exitY=0.5;exitDx=0;exitDy=0;endArrow=none;endFill=0;" parent="1" source="81-VmglB9chWacr3tUtb-7" target="81-VmglB9chWacr3tUtb-49" edge="1">
          <mxGeometry relative="1" as="geometry" />
        </mxCell>
        <mxCell id="81-VmglB9chWacr3tUtb-6" value="有didicard" style="edgeLabel;html=1;align=center;verticalAlign=middle;resizable=0;points=[];" parent="81-VmglB9chWacr3tUtb-5" vertex="1" connectable="0">
          <mxGeometry x="-0.1097" y="4" relative="1" as="geometry">
            <mxPoint as="offset" />
          </mxGeometry>
        </mxCell>
        <mxCell id="81-VmglB9chWacr3tUtb-7" value="营销网关（路由和结果组装）" style="rounded=0;whiteSpace=wrap;html=1;" parent="1" vertex="1">
          <mxGeometry x="220" y="290" width="190" height="30" as="geometry" />
        </mxCell>
        <mxCell id="81-VmglB9chWacr3tUtb-8" value="&lt;b&gt;settlement&lt;/b&gt;&lt;br&gt;- 清算&lt;br&gt;- 结算" style="rounded=0;whiteSpace=wrap;html=1;" parent="1" vertex="1">
          <mxGeometry x="660" y="340" width="120" height="60" as="geometry" />
        </mxCell>
        <mxCell id="81-VmglB9chWacr3tUtb-9" style="edgeStyle=orthogonalEdgeStyle;rounded=0;orthogonalLoop=1;jettySize=auto;html=1;exitX=0.5;exitY=1;exitDx=0;exitDy=0;" parent="1" source="81-VmglB9chWacr3tUtb-13" target="81-VmglB9chWacr3tUtb-45" edge="1">
          <mxGeometry relative="1" as="geometry">
            <Array as="points">
              <mxPoint x="280" y="490" />
            </Array>
          </mxGeometry>
        </mxCell>
        <mxCell id="81-VmglB9chWacr3tUtb-10" value="发起支付" style="edgeLabel;html=1;align=center;verticalAlign=middle;resizable=0;points=[];" parent="81-VmglB9chWacr3tUtb-9" vertex="1" connectable="0">
          <mxGeometry x="-0.44" y="2" relative="1" as="geometry">
            <mxPoint x="-12" y="20" as="offset" />
          </mxGeometry>
        </mxCell>
        <mxCell id="81-VmglB9chWacr3tUtb-11" style="edgeStyle=orthogonalEdgeStyle;rounded=0;orthogonalLoop=1;jettySize=auto;html=1;exitX=0;exitY=0;exitDx=0;exitDy=0;entryX=0;entryY=0.25;entryDx=0;entryDy=0;" parent="1" source="81-VmglB9chWacr3tUtb-13" target="81-VmglB9chWacr3tUtb-24" edge="1">
          <mxGeometry relative="1" as="geometry">
            <Array as="points">
              <mxPoint x="210" y="430" />
              <mxPoint x="210" y="280" />
              <mxPoint x="168" y="280" />
              <mxPoint x="168" y="85" />
            </Array>
          </mxGeometry>
        </mxCell>
        <mxCell id="81-VmglB9chWacr3tUtb-12" value="券冻结/解冻/核销/退券" style="edgeLabel;html=1;align=center;verticalAlign=middle;resizable=0;points=[];" parent="81-VmglB9chWacr3tUtb-11" vertex="1" connectable="0">
          <mxGeometry x="0.4508" y="3" relative="1" as="geometry">
            <mxPoint x="-25" as="offset" />
          </mxGeometry>
        </mxCell>
        <mxCell id="81-VmglB9chWacr3tUtb-13" value="交易中心&lt;br&gt;&lt;b&gt;wakanda&lt;/b&gt;" style="rounded=0;whiteSpace=wrap;html=1;fillColor=#fff2cc;strokeColor=#d6b656;" parent="1" vertex="1">
          <mxGeometry x="240" y="430" width="120" height="60" as="geometry" />
        </mxCell>
        <mxCell id="81-VmglB9chWacr3tUtb-14" value="&lt;div&gt;&lt;b&gt;finance-gateway&lt;/b&gt;&lt;/div&gt;&lt;div&gt;&lt;span style=&quot;background-color: initial;&quot;&gt;- 记账&lt;/span&gt;&lt;/div&gt;&lt;div&gt;&lt;/div&gt;&lt;div&gt;&lt;/div&gt;" style="rounded=0;whiteSpace=wrap;html=1;" parent="1" vertex="1">
          <mxGeometry x="670" y="525" width="120" height="60" as="geometry" />
        </mxCell>
        <mxCell id="81-VmglB9chWacr3tUtb-15" value="" style="endArrow=classic;html=1;rounded=0;exitX=0.25;exitY=0;exitDx=0;exitDy=0;" parent="1" source="81-VmglB9chWacr3tUtb-13" edge="1">
          <mxGeometry width="50" height="50" relative="1" as="geometry">
            <mxPoint x="380" y="500" as="sourcePoint" />
            <mxPoint x="270" y="320" as="targetPoint" />
          </mxGeometry>
        </mxCell>
        <mxCell id="81-VmglB9chWacr3tUtb-16" value="查营销" style="edgeLabel;html=1;align=center;verticalAlign=middle;resizable=0;points=[];" parent="81-VmglB9chWacr3tUtb-15" vertex="1" connectable="0">
          <mxGeometry x="-0.0188" relative="1" as="geometry">
            <mxPoint as="offset" />
          </mxGeometry>
        </mxCell>
        <mxCell id="81-VmglB9chWacr3tUtb-17" value="" style="endArrow=classic;html=1;rounded=0;entryX=0.25;entryY=0;entryDx=0;entryDy=0;dashed=1;dashPattern=8 8;" parent="1" target="81-VmglB9chWacr3tUtb-14" edge="1">
          <mxGeometry width="50" height="50" relative="1" as="geometry">
            <mxPoint x="360" y="470" as="sourcePoint" />
            <mxPoint x="650" y="525" as="targetPoint" />
            <Array as="points">
              <mxPoint x="700" y="470" />
            </Array>
          </mxGeometry>
        </mxCell>
        <mxCell id="81-VmglB9chWacr3tUtb-18" value="推送交易事件" style="edgeLabel;html=1;align=center;verticalAlign=middle;resizable=0;points=[];" parent="81-VmglB9chWacr3tUtb-17" vertex="1" connectable="0">
          <mxGeometry x="-0.3288" relative="1" as="geometry">
            <mxPoint x="14" y="10" as="offset" />
          </mxGeometry>
        </mxCell>
        <mxCell id="81-VmglB9chWacr3tUtb-19" value="" style="endArrow=classic;html=1;rounded=0;exitX=1;exitY=0.25;exitDx=0;exitDy=0;entryX=0;entryY=0.5;entryDx=0;entryDy=0;" parent="1" source="81-VmglB9chWacr3tUtb-13" target="81-VmglB9chWacr3tUtb-22" edge="1">
          <mxGeometry width="50" height="50" relative="1" as="geometry">
            <mxPoint x="360" y="450" as="sourcePoint" />
            <mxPoint x="680" y="400" as="targetPoint" />
            <Array as="points" />
          </mxGeometry>
        </mxCell>
        <mxCell id="81-VmglB9chWacr3tUtb-20" value="存交易信息" style="edgeLabel;html=1;align=center;verticalAlign=middle;resizable=0;points=[];" parent="81-VmglB9chWacr3tUtb-19" vertex="1" connectable="0">
          <mxGeometry x="-0.2346" y="2" relative="1" as="geometry">
            <mxPoint x="3" y="-23" as="offset" />
          </mxGeometry>
        </mxCell>
        <mxCell id="81-VmglB9chWacr3tUtb-21" style="edgeStyle=orthogonalEdgeStyle;rounded=0;orthogonalLoop=1;jettySize=auto;html=1;exitX=0.5;exitY=0;exitDx=0;exitDy=0;entryX=0.5;entryY=1;entryDx=0;entryDy=0;dashed=1;" parent="1" source="81-VmglB9chWacr3tUtb-22" target="81-VmglB9chWacr3tUtb-8" edge="1">
          <mxGeometry relative="1" as="geometry">
            <Array as="points">
              <mxPoint x="505" y="420" />
              <mxPoint x="720" y="420" />
            </Array>
          </mxGeometry>
        </mxCell>
        <mxCell id="81-VmglB9chWacr3tUtb-22" value="DB: 交易表" style="whiteSpace=wrap;html=1;fillColor=#d5e8d4;strokeColor=#82b366;" parent="1" vertex="1">
          <mxGeometry x="470" y="430" width="70" height="30" as="geometry" />
        </mxCell>
        <mxCell id="81-VmglB9chWacr3tUtb-23" value="binlog" style="text;html=1;align=center;verticalAlign=middle;resizable=0;points=[];autosize=1;strokeColor=none;fillColor=none;" parent="1" vertex="1">
          <mxGeometry x="585" y="400" width="60" height="30" as="geometry" />
        </mxCell>
        <mxCell id="81-VmglB9chWacr3tUtb-24" value="券中台" style="rounded=0;whiteSpace=wrap;html=1;" parent="1" vertex="1">
          <mxGeometry x="188" y="70" width="120" height="60" as="geometry" />
        </mxCell>
        <mxCell id="81-VmglB9chWacr3tUtb-25" value="业务方" style="swimlane;fontStyle=0;childLayout=stackLayout;horizontal=1;startSize=30;horizontalStack=0;resizeParent=1;resizeParentMax=0;resizeLast=0;collapsible=1;marginBottom=0;whiteSpace=wrap;html=1;" parent="1" vertex="1">
          <mxGeometry x="10" y="310" width="140" height="120" as="geometry">
            <mxRectangle x="20" y="300" width="80" height="30" as="alternateBounds" />
          </mxGeometry>
        </mxCell>
        <mxCell id="81-VmglB9chWacr3tUtb-26" value="钱包（已接入）" style="text;strokeColor=none;fillColor=none;align=left;verticalAlign=middle;spacingLeft=4;spacingRight=4;overflow=hidden;points=[[0,0.5],[1,0.5]];portConstraint=eastwest;rotatable=0;whiteSpace=wrap;html=1;" parent="81-VmglB9chWacr3tUtb-25" vertex="1">
          <mxGeometry y="30" width="140" height="30" as="geometry" />
        </mxCell>
        <mxCell id="81-VmglB9chWacr3tUtb-27" value="&lt;font color=&quot;#999999&quot;&gt;外卖&lt;/font&gt;" style="text;strokeColor=none;fillColor=none;align=left;verticalAlign=middle;spacingLeft=4;spacingRight=4;overflow=hidden;points=[[0,0.5],[1,0.5]];portConstraint=eastwest;rotatable=0;whiteSpace=wrap;html=1;" parent="81-VmglB9chWacr3tUtb-25" vertex="1">
          <mxGeometry y="60" width="140" height="30" as="geometry" />
        </mxCell>
        <mxCell id="81-VmglB9chWacr3tUtb-28" value="&lt;font color=&quot;#999999&quot;&gt;出行&lt;/font&gt;" style="text;strokeColor=none;fillColor=none;align=left;verticalAlign=middle;spacingLeft=4;spacingRight=4;overflow=hidden;points=[[0,0.5],[1,0.5]];portConstraint=eastwest;rotatable=0;whiteSpace=wrap;html=1;" parent="81-VmglB9chWacr3tUtb-25" vertex="1">
          <mxGeometry y="90" width="140" height="30" as="geometry" />
        </mxCell>
        <mxCell id="81-VmglB9chWacr3tUtb-29" style="edgeStyle=orthogonalEdgeStyle;rounded=0;orthogonalLoop=1;jettySize=auto;html=1;exitX=1;exitY=0.5;exitDx=0;exitDy=0;entryX=0;entryY=0.25;entryDx=0;entryDy=0;" parent="1" source="81-VmglB9chWacr3tUtb-27" target="81-VmglB9chWacr3tUtb-13" edge="1">
          <mxGeometry relative="1" as="geometry" />
        </mxCell>
        <mxCell id="81-VmglB9chWacr3tUtb-30" value="创单" style="edgeLabel;html=1;align=center;verticalAlign=middle;resizable=0;points=[];" parent="81-VmglB9chWacr3tUtb-29" vertex="1" connectable="0">
          <mxGeometry x="-0.64" y="1" relative="1" as="geometry">
            <mxPoint as="offset" />
          </mxGeometry>
        </mxCell>
        <mxCell id="81-VmglB9chWacr3tUtb-31" style="edgeStyle=orthogonalEdgeStyle;rounded=0;orthogonalLoop=1;jettySize=auto;html=1;exitX=1;exitY=0.3333333333333333;exitDx=0;exitDy=0;exitPerimeter=0;entryX=0;entryY=0.75;entryDx=0;entryDy=0;" parent="1" source="81-VmglB9chWacr3tUtb-33" target="81-VmglB9chWacr3tUtb-13" edge="1">
          <mxGeometry relative="1" as="geometry" />
        </mxCell>
        <mxCell id="81-VmglB9chWacr3tUtb-32" value="渲染收银面板/支付" style="edgeLabel;html=1;align=center;verticalAlign=middle;resizable=0;points=[];" parent="81-VmglB9chWacr3tUtb-31" vertex="1" connectable="0">
          <mxGeometry x="-0.4595" y="1" relative="1" as="geometry">
            <mxPoint as="offset" />
          </mxGeometry>
        </mxCell>
        <mxCell id="81-VmglB9chWacr3tUtb-33" value="Actor" style="shape=umlActor;verticalLabelPosition=bottom;verticalAlign=top;html=1;outlineConnect=0;" parent="1" vertex="1">
          <mxGeometry x="50" y="480" width="30" height="60" as="geometry" />
        </mxCell>
        <mxCell id="81-VmglB9chWacr3tUtb-34" style="edgeStyle=orthogonalEdgeStyle;rounded=0;orthogonalLoop=1;jettySize=auto;html=1;exitX=0.75;exitY=0;exitDx=0;exitDy=0;entryX=0.317;entryY=0.983;entryDx=0;entryDy=0;entryPerimeter=0;" parent="1" source="81-VmglB9chWacr3tUtb-40" target="81-VmglB9chWacr3tUtb-50" edge="1">
          <mxGeometry relative="1" as="geometry" />
        </mxCell>
        <mxCell id="81-VmglB9chWacr3tUtb-35" value="cashback/立减" style="edgeLabel;html=1;align=center;verticalAlign=middle;resizable=0;points=[];" parent="81-VmglB9chWacr3tUtb-34" vertex="1" connectable="0">
          <mxGeometry x="0.2297" relative="1" as="geometry">
            <mxPoint x="-12" y="-5" as="offset" />
          </mxGeometry>
        </mxCell>
        <mxCell id="81-VmglB9chWacr3tUtb-36" style="edgeStyle=orthogonalEdgeStyle;rounded=0;orthogonalLoop=1;jettySize=auto;html=1;exitX=0.75;exitY=1;exitDx=0;exitDy=0;entryX=0.25;entryY=0;entryDx=0;entryDy=0;endArrow=none;endFill=0;" parent="1" source="81-VmglB9chWacr3tUtb-40" target="81-VmglB9chWacr3tUtb-7" edge="1">
          <mxGeometry relative="1" as="geometry" />
        </mxCell>
        <mxCell id="81-VmglB9chWacr3tUtb-37" value="钱包" style="edgeLabel;html=1;align=center;verticalAlign=middle;resizable=0;points=[];" parent="81-VmglB9chWacr3tUtb-36" vertex="1" connectable="0">
          <mxGeometry x="0.1605" y="-2" relative="1" as="geometry">
            <mxPoint as="offset" />
          </mxGeometry>
        </mxCell>
        <mxCell id="81-VmglB9chWacr3tUtb-38" style="edgeStyle=orthogonalEdgeStyle;rounded=0;orthogonalLoop=1;jettySize=auto;html=1;exitX=0.5;exitY=0;exitDx=0;exitDy=0;entryX=0.5;entryY=1;entryDx=0;entryDy=0;" parent="1" source="81-VmglB9chWacr3tUtb-40" target="81-VmglB9chWacr3tUtb-24" edge="1">
          <mxGeometry relative="1" as="geometry" />
        </mxCell>
        <mxCell id="81-VmglB9chWacr3tUtb-39" value="支付券" style="edgeLabel;html=1;align=center;verticalAlign=middle;resizable=0;points=[];" parent="81-VmglB9chWacr3tUtb-38" vertex="1" connectable="0">
          <mxGeometry x="-0.0286" y="-1" relative="1" as="geometry">
            <mxPoint as="offset" />
          </mxGeometry>
        </mxCell>
        <mxCell id="81-VmglB9chWacr3tUtb-40" value="墨西哥行业营销" style="rounded=0;whiteSpace=wrap;html=1;" parent="1" vertex="1">
          <mxGeometry x="188" y="200" width="120" height="60" as="geometry" />
        </mxCell>
        <mxCell id="81-VmglB9chWacr3tUtb-41" value="集团行业营销" style="rounded=0;whiteSpace=wrap;html=1;" parent="1" vertex="1">
          <mxGeometry x="322" y="200" width="120" height="60" as="geometry" />
        </mxCell>
        <mxCell id="81-VmglB9chWacr3tUtb-42" style="edgeStyle=orthogonalEdgeStyle;rounded=0;orthogonalLoop=1;jettySize=auto;html=1;exitX=0.5;exitY=1;exitDx=0;exitDy=0;entryX=0.5;entryY=0;entryDx=0;entryDy=0;" parent="1" source="81-VmglB9chWacr3tUtb-45" target="81-VmglB9chWacr3tUtb-46" edge="1">
          <mxGeometry relative="1" as="geometry" />
        </mxCell>
        <mxCell id="81-VmglB9chWacr3tUtb-43" style="edgeStyle=orthogonalEdgeStyle;rounded=0;orthogonalLoop=1;jettySize=auto;html=1;exitX=0.75;exitY=0;exitDx=0;exitDy=0;entryX=0.75;entryY=1;entryDx=0;entryDy=0;dashed=1;" parent="1" source="81-VmglB9chWacr3tUtb-45" target="81-VmglB9chWacr3tUtb-13" edge="1">
          <mxGeometry relative="1" as="geometry" />
        </mxCell>
        <mxCell id="81-VmglB9chWacr3tUtb-44" value="支付回调" style="edgeLabel;html=1;align=center;verticalAlign=middle;resizable=0;points=[];" parent="81-VmglB9chWacr3tUtb-43" vertex="1" connectable="0">
          <mxGeometry y="1" relative="1" as="geometry">
            <mxPoint as="offset" />
          </mxGeometry>
        </mxCell>
        <mxCell id="81-VmglB9chWacr3tUtb-45" value="资金平台" style="rounded=0;whiteSpace=wrap;html=1;" parent="1" vertex="1">
          <mxGeometry x="240" y="540" width="120" height="60" as="geometry" />
        </mxCell>
        <mxCell id="81-VmglB9chWacr3tUtb-46" value="" style="rounded=0;whiteSpace=wrap;html=1;" parent="1" vertex="1">
          <mxGeometry x="205" y="630" width="190" height="80" as="geometry" />
        </mxCell>
        <mxCell id="81-VmglB9chWacr3tUtb-47" value="sofi" style="rounded=0;whiteSpace=wrap;html=1;" parent="1" vertex="1">
          <mxGeometry x="218" y="660" width="60" height="20" as="geometry" />
        </mxCell>
        <mxCell id="81-VmglB9chWacr3tUtb-48" value="外部渠道" style="text;html=1;strokeColor=none;fillColor=none;align=center;verticalAlign=middle;whiteSpace=wrap;rounded=0;" parent="1" vertex="1">
          <mxGeometry x="205" y="630" width="60" height="30" as="geometry" />
        </mxCell>
        <mxCell id="81-VmglB9chWacr3tUtb-49" value="墨西哥信用卡营销" style="rounded=0;whiteSpace=wrap;html=1;" parent="1" vertex="1">
          <mxGeometry x="460" y="200" width="120" height="60" as="geometry" />
        </mxCell>
        <mxCell id="81-VmglB9chWacr3tUtb-50" value="营销中台" style="rounded=0;whiteSpace=wrap;html=1;" parent="1" vertex="1">
          <mxGeometry x="330" y="70" width="120" height="60" as="geometry" />
        </mxCell>
      </root>
    </mxGraphModel>
  </diagram>
</mxfile>
